PathFileType	4	(X / Y / Z)	Demo_152250_11_September_2019	Demo_152250_11_September_2019.trc
DataRate	CameraRate	NumFrames	NumMarkers	Units	OrigDataRate	OrigDataStartFrame	OrigNumFrames
50	50	25	25	m	50	1692	2190
Frame#	Time		SpineBase		SpineMid		Neck		Head		ShoulderLeft		ElbowLeft		WristLeft		HandLeft		ShoulderRight		ElbowRight		WristRight		HandRight		HipLeft		KneeLeft		AnkleLeft		FootLeft		HipRight		KneeRight		AnkleRight		FootRight		SpineShoulder		HandTipLeft		LeftThumb		HandTipRight		ThumbRight		
X1	Y1	Z1	X2	Y2	Z2	X3	Y3	Z3	X4	Y4	Z4	X5	Y5	Z5	X6	Y6	Z6	X7	Y7	Z7	X8	Y8	Z8	X9	Y9	Z9	X10	Y10	Z10	X11	Y11	Z11	X12	Y12	Z12	X13	Y13	Z13	X14	Y14	Z14	X15	Y15	Z15	X16	Y16	Z16	X17	Y17	Z17	X18	Y18	Z18	X19	Y19	Z19	X20	Y20	Z20	X21	Y21	Z21	X22	Y22	Z22	X23	Y23	Z23	X24	Y24	Z24	X25	Y25	Z25	
1643	53.273	0.043	0.739	1.493	0.042	1.028	1.467	0.042	1.309	1.429	0.052	1.454	1.404	-0.106	1.202	1.421	-0.159	0.967	1.436	-0.210	0.775	1.415	-0.217	0.704	1.419	0.217	1.211	1.411	0.381	1.023	1.400	0.523	0.919	1.381	0.534	0.905	1.380	-0.034	0.745	1.459	-0.076	0.443	1.518	-0.072	0.292	1.579	-0.069	0.276	1.539	0.118	0.744	1.460	0.160	0.441	1.516	0.139	0.285	1.576	0.130	0.274	1.543	0.042	1.241	1.441	-0.215	0.632	1.411	-0.201	0.690	1.388	0.611	0.859	1.336	0.558	0.920	1.318
1644	53.290	0.043	0.739	1.493	0.042	1.028	1.467	0.042	1.309	1.429	0.052	1.454	1.404	-0.106	1.202	1.421	-0.159	0.967	1.436	-0.210	0.775	1.415	-0.217	0.704	1.419	0.217	1.211	1.411	0.381	1.023	1.400	0.523	0.919	1.381	0.534	0.905	1.380	-0.034	0.745	1.459	-0.076	0.443	1.518	-0.072	0.292	1.579	-0.069	0.276	1.539	0.118	0.744	1.460	0.160	0.441	1.516	0.139	0.285	1.576	0.130	0.274	1.543	0.042	1.241	1.441	-0.215	0.632	1.411	-0.201	0.690	1.388	0.611	0.859	1.336	0.558	0.920	1.318
1645	53.306	0.043	0.739	1.493	0.042	1.028	1.467	0.042	1.309	1.429	0.052	1.454	1.404	-0.106	1.202	1.421	-0.159	0.967	1.436	-0.210	0.775	1.415	-0.217	0.704	1.419	0.217	1.211	1.411	0.381	1.023	1.400	0.523	0.919	1.381	0.534	0.905	1.380	-0.034	0.745	1.459	-0.076	0.443	1.518	-0.072	0.292	1.579	-0.069	0.276	1.539	0.118	0.744	1.460	0.160	0.441	1.516	0.139	0.285	1.576	0.130	0.274	1.543	0.042	1.241	1.441	-0.215	0.632	1.411	-0.201	0.690	1.388	0.611	0.859	1.336	0.558	0.920	1.318
1646	53.323	0.044	0.738	1.494	0.042	1.028	1.468	0.041	1.310	1.431	0.050	1.454	1.405	-0.107	1.202	1.423	-0.158	0.966	1.437	-0.209	0.774	1.415	-0.221	0.704	1.415	0.209	1.201	1.412	0.289	0.934	1.425	0.266	0.717	1.429	0.255	0.657	1.443	-0.033	0.744	1.462	-0.076	0.443	1.518	-0.072	0.292	1.579	-0.069	0.276	1.539	0.119	0.743	1.460	0.164	0.440	1.518	0.141	0.285	1.578	0.129	0.274	1.543	0.042	1.241	1.442	-0.215	0.632	1.412	-0.201	0.689	1.388	0.279	0.573	1.440	0.246	0.664	1.403
1647	53.340	0.044	0.738	1.494	0.042	1.028	1.468	0.041	1.310	1.431	0.050	1.454	1.405	-0.107	1.202	1.423	-0.158	0.966	1.437	-0.209	0.774	1.415	-0.221	0.704	1.415	0.209	1.201	1.412	0.289	0.934	1.425	0.266	0.717	1.429	0.255	0.657	1.443	-0.033	0.744	1.462	-0.076	0.443	1.518	-0.072	0.292	1.579	-0.069	0.276	1.539	0.119	0.743	1.460	0.164	0.440	1.518	0.141	0.285	1.578	0.129	0.274	1.543	0.042	1.241	1.442	-0.215	0.632	1.412	-0.201	0.689	1.388	0.279	0.573	1.440	0.246	0.664	1.403
1648	53.357	0.045	0.736	1.496	0.042	1.028	1.469	0.041	1.310	1.432	0.049	1.454	1.406	-0.108	1.202	1.425	-0.158	0.966	1.438	-0.210	0.774	1.415	-0.224	0.704	1.411	0.203	1.194	1.412	0.243	0.916	1.434	0.300	0.699	1.462	0.294	0.635	1.474	-0.032	0.742	1.465	-0.076	0.442	1.519	-0.072	0.292	1.580	-0.070	0.276	1.539	0.119	0.742	1.461	0.166	0.439	1.521	0.141	0.285	1.579	0.129	0.274	1.543	0.042	1.241	1.443	-0.218	0.634	1.410	-0.203	0.689	1.386	0.280	0.528	1.504	0.220	0.595	1.457
1649	53.373	0.045	0.736	1.496	0.042	1.028	1.469	0.041	1.310	1.432	0.049	1.454	1.406	-0.108	1.202	1.425	-0.158	0.966	1.438	-0.210	0.774	1.415	-0.224	0.704	1.411	0.203	1.194	1.412	0.243	0.916	1.434	0.300	0.699	1.462	0.294	0.635	1.474	-0.032	0.742	1.465	-0.076	0.442	1.519	-0.072	0.292	1.580	-0.070	0.276	1.539	0.119	0.742	1.461	0.166	0.439	1.521	0.141	0.285	1.579	0.129	0.274	1.543	0.042	1.241	1.443	-0.218	0.634	1.410	-0.203	0.689	1.386	0.280	0.528	1.504	0.220	0.595	1.457
1650	53.390	0.045	0.735	1.497	0.043	1.028	1.471	0.041	1.310	1.433	0.048	1.454	1.407	-0.108	1.202	1.426	-0.157	0.966	1.439	-0.210	0.774	1.415	-0.226	0.705	1.408	0.200	1.189	1.412	0.238	0.920	1.436	0.318	0.759	1.463	0.332	0.693	1.473	-0.031	0.741	1.467	-0.077	0.440	1.520	-0.073	0.293	1.580	-0.070	0.276	1.539	0.120	0.740	1.462	0.167	0.439	1.523	0.142	0.285	1.580	0.129	0.273	1.543	0.041	1.241	1.444	-0.219	0.634	1.408	-0.205	0.692	1.384	0.312	0.586	1.497	0.289	0.647	1.453
1651	53.407	0.045	0.735	1.497	0.043	1.028	1.471	0.041	1.310	1.433	0.048	1.454	1.407	-0.108	1.202	1.426	-0.157	0.966	1.439	-0.210	0.774	1.415	-0.226	0.705	1.408	0.200	1.189	1.412	0.238	0.920	1.436	0.318	0.759	1.463	0.332	0.693	1.473	-0.031	0.741	1.467	-0.077	0.440	1.520	-0.073	0.293	1.580	-0.070	0.276	1.539	0.120	0.740	1.462	0.167	0.439	1.523	0.142	0.285	1.580	0.129	0.273	1.543	0.041	1.241	1.444	-0.219	0.634	1.408	-0.205	0.692	1.384	0.312	0.586	1.497	0.289	0.647	1.453
1652	53.423	0.046	0.734	1.498	0.043	1.028	1.472	0.040	1.310	1.434	0.048	1.454	1.408	-0.108	1.202	1.428	-0.157	0.966	1.440	-0.211	0.774	1.415	-0.228	0.707	1.405	0.197	1.187	1.413	0.257	0.932	1.435	0.357	0.789	1.460	0.385	0.722	1.471	-0.030	0.740	1.469	-0.077	0.439	1.521	-0.073	0.293	1.581	-0.070	0.276	1.540	0.120	0.739	1.463	0.168	0.438	1.524	0.142	0.285	1.581	0.129	0.273	1.543	0.041	1.241	1.445	-0.220	0.636	1.405	-0.206	0.695	1.381	0.379	0.615	1.509	0.352	0.665	1.454
1653	53.440	0.046	0.734	1.498	0.043	1.028	1.472	0.040	1.310	1.434	0.048	1.454	1.408	-0.108	1.202	1.428	-0.157	0.966	1.440	-0.211	0.774	1.415	-0.228	0.707	1.405	0.197	1.187	1.413	0.257	0.932	1.435	0.357	0.789	1.460	0.385	0.722	1.471	-0.030	0.740	1.469	-0.077	0.439	1.521	-0.073	0.293	1.581	-0.070	0.276	1.540	0.120	0.739	1.463	0.168	0.438	1.524	0.142	0.285	1.581	0.129	0.273	1.543	0.041	1.241	1.445	-0.220	0.636	1.405	-0.206	0.695	1.381	0.379	0.615	1.509	0.352	0.665	1.454
1654	53.457	0.046	0.733	1.499	0.043	1.027	1.473	0.040	1.310	1.435	0.047	1.454	1.409	-0.108	1.202	1.429	-0.157	0.966	1.441	-0.211	0.774	1.415	-0.229	0.707	1.403	0.196	1.185	1.413	0.306	0.963	1.431	0.413	0.823	1.449	0.453	0.771	1.464	-0.030	0.739	1.471	-0.077	0.438	1.522	-0.073	0.293	1.581	-0.070	0.276	1.540	0.120	0.738	1.464	0.169	0.438	1.525	0.143	0.285	1.581	0.129	0.273	1.544	0.041	1.241	1.446	-0.221	0.637	1.403	-0.207	0.696	1.380	0.467	0.670	1.500	0.434	0.704	1.452
1655	53.473	0.046	0.733	1.499	0.043	1.027	1.473	0.040	1.310	1.435	0.047	1.454	1.409	-0.108	1.202	1.429	-0.157	0.966	1.441	-0.211	0.774	1.415	-0.229	0.707	1.403	0.196	1.185	1.413	0.306	0.963	1.431	0.413	0.823	1.449	0.453	0.771	1.464	-0.030	0.739	1.471	-0.077	0.438	1.522	-0.073	0.293	1.581	-0.070	0.276	1.540	0.120	0.738	1.464	0.169	0.438	1.525	0.143	0.285	1.581	0.129	0.273	1.544	0.041	1.241	1.446	-0.221	0.637	1.403	-0.207	0.696	1.380	0.467	0.670	1.500	0.434	0.704	1.452
1656	53.490	0.046	0.732	1.500	0.043	1.027	1.474	0.040	1.310	1.436	0.047	1.454	1.410	-0.108	1.202	1.430	-0.157	0.966	1.442	-0.212	0.774	1.414	-0.230	0.708	1.402	0.195	1.183	1.413	0.349	0.996	1.423	0.483	0.887	1.444	0.493	0.875	1.443	-0.029	0.738	1.472	-0.077	0.437	1.523	-0.073	0.293	1.582	-0.070	0.276	1.540	0.120	0.737	1.464	0.169	0.437	1.526	0.143	0.285	1.582	0.129	0.273	1.544	0.041	1.241	1.447	-0.221	0.638	1.401	-0.207	0.697	1.379	0.543	0.777	1.481	0.492	0.823	1.423
1657	53.507	0.046	0.732	1.500	0.043	1.027	1.474	0.040	1.310	1.436	0.047	1.454	1.410	-0.108	1.202	1.430	-0.157	0.966	1.442	-0.212	0.774	1.414	-0.230	0.708	1.402	0.195	1.183	1.413	0.349	0.996	1.423	0.483	0.887	1.444	0.493	0.875	1.443	-0.029	0.738	1.472	-0.077	0.437	1.523	-0.073	0.293	1.582	-0.070	0.276	1.540	0.120	0.737	1.464	0.169	0.437	1.526	0.143	0.285	1.582	0.129	0.273	1.544	0.041	1.241	1.447	-0.221	0.638	1.401	-0.207	0.697	1.379	0.543	0.777	1.481	0.492	0.823	1.423
1658	53.524	0.046	0.731	1.501	0.043	1.027	1.475	0.040	1.310	1.436	0.046	1.454	1.410	-0.108	1.203	1.431	-0.157	0.966	1.443	-0.213	0.775	1.414	-0.231	0.708	1.402	0.195	1.183	1.414	0.399	1.059	1.407	0.559	0.988	1.421	0.607	0.957	1.429	-0.030	0.738	1.473	-0.077	0.437	1.524	-0.073	0.293	1.582	-0.070	0.276	1.541	0.120	0.736	1.465	0.169	0.436	1.526	0.143	0.285	1.582	0.129	0.273	1.544	0.041	1.241	1.448	-0.222	0.639	1.401	-0.208	0.699	1.378	0.683	0.899	1.453	0.638	0.921	1.412
1659	53.540	0.046	0.731	1.501	0.043	1.027	1.475	0.040	1.310	1.436	0.046	1.454	1.410	-0.108	1.203	1.431	-0.157	0.966	1.443	-0.213	0.775	1.414	-0.231	0.708	1.402	0.195	1.183	1.414	0.399	1.059	1.407	0.559	0.988	1.421	0.607	0.957	1.429	-0.030	0.738	1.473	-0.077	0.437	1.524	-0.073	0.293	1.582	-0.070	0.276	1.541	0.120	0.736	1.465	0.169	0.436	1.526	0.143	0.285	1.582	0.129	0.273	1.544	0.041	1.241	1.448	-0.222	0.639	1.401	-0.208	0.699	1.378	0.683	0.899	1.453	0.638	0.921	1.412
1660	53.557	0.046	0.731	1.502	0.043	1.027	1.476	0.040	1.310	1.437	0.046	1.455	1.411	-0.108	1.203	1.431	-0.157	0.966	1.444	-0.213	0.775	1.414	-0.231	0.709	1.402	0.197	1.184	1.416	0.435	1.126	1.395	0.614	1.090	1.390	0.669	1.075	1.399	-0.030	0.737	1.474	-0.077	0.436	1.524	-0.073	0.293	1.582	-0.071	0.276	1.541	0.120	0.736	1.466	0.169	0.436	1.527	0.143	0.285	1.582	0.129	0.273	1.544	0.041	1.241	1.449	-0.223	0.640	1.400	-0.209	0.700	1.378	0.771	1.041	1.413	0.664	1.060	1.366
1661	53.574	0.046	0.731	1.502	0.043	1.027	1.476	0.040	1.310	1.437	0.046	1.455	1.411	-0.108	1.203	1.431	-0.157	0.966	1.444	-0.213	0.775	1.414	-0.231	0.709	1.402	0.197	1.184	1.416	0.435	1.126	1.395	0.614	1.090	1.390	0.669	1.075	1.399	-0.030	0.737	1.474	-0.077	0.436	1.524	-0.073	0.293	1.582	-0.071	0.276	1.541	0.120	0.736	1.466	0.169	0.436	1.527	0.143	0.285	1.582	0.129	0.273	1.544	0.041	1.241	1.449	-0.223	0.640	1.400	-0.209	0.700	1.378	0.771	1.041	1.413	0.664	1.060	1.366
1662	53.590	0.046	0.731	1.502	0.043	1.027	1.476	0.040	1.310	1.437	0.046	1.455	1.411	-0.108	1.203	1.431	-0.157	0.966	1.444	-0.213	0.775	1.414	-0.231	0.709	1.402	0.197	1.184	1.416	0.435	1.126	1.395	0.614	1.090	1.390	0.669	1.075	1.399	-0.030	0.737	1.474	-0.077	0.436	1.524	-0.073	0.293	1.582	-0.071	0.276	1.541	0.120	0.736	1.466	0.169	0.436	1.527	0.143	0.285	1.582	0.129	0.273	1.544	0.041	1.241	1.449	-0.223	0.640	1.400	-0.209	0.700	1.378	0.771	1.041	1.413	0.664	1.060	1.366
1663	53.607	0.046	0.731	1.502	0.043	1.027	1.476	0.040	1.310	1.437	0.046	1.455	1.411	-0.108	1.203	1.431	-0.157	0.966	1.444	-0.213	0.775	1.414	-0.231	0.709	1.402	0.197	1.184	1.416	0.435	1.126	1.395	0.614	1.090	1.390	0.669	1.075	1.399	-0.030	0.737	1.474	-0.077	0.436	1.524	-0.073	0.293	1.582	-0.071	0.276	1.541	0.120	0.736	1.466	0.169	0.436	1.527	0.143	0.285	1.582	0.129	0.273	1.544	0.041	1.241	1.449	-0.223	0.640	1.400	-0.209	0.700	1.378	0.771	1.041	1.413	0.664	1.060	1.366
1664	53.624	0.046	0.731	1.502	0.043	1.027	1.476	0.040	1.310	1.437	0.046	1.455	1.411	-0.108	1.203	1.431	-0.157	0.966	1.444	-0.213	0.775	1.414	-0.231	0.709	1.402	0.197	1.184	1.416	0.435	1.126	1.395	0.614	1.090	1.390	0.669	1.075	1.399	-0.030	0.737	1.474	-0.077	0.436	1.524	-0.073	0.293	1.582	-0.071	0.276	1.541	0.120	0.736	1.466	0.169	0.436	1.527	0.143	0.285	1.582	0.129	0.273	1.544	0.041	1.241	1.449	-0.223	0.640	1.400	-0.209	0.700	1.378	0.771	1.041	1.413	0.664	1.060	1.366
1665	53.640	0.046	0.731	1.502	0.043	1.027	1.476	0.040	1.310	1.437	0.046	1.455	1.411	-0.108	1.203	1.431	-0.157	0.966	1.444	-0.213	0.775	1.414	-0.231	0.709	1.402	0.197	1.184	1.416	0.435	1.126	1.395	0.614	1.090	1.390	0.669	1.075	1.399	-0.030	0.737	1.474	-0.077	0.436	1.524	-0.073	0.293	1.582	-0.071	0.276	1.541	0.120	0.736	1.466	0.169	0.436	1.527	0.143	0.285	1.582	0.129	0.273	1.544	0.041	1.241	1.449	-0.223	0.640	1.400	-0.209	0.700	1.378	0.771	1.041	1.413	0.664	1.060	1.366
1666	53.657	0.046	0.731	1.503	0.043	1.027	1.477	0.040	1.310	1.438	0.046	1.455	1.412	-0.108	1.203	1.432	-0.158	0.967	1.445	-0.214	0.776	1.414	-0.233	0.711	1.406	0.212	1.196	1.423	0.466	1.227	1.385	0.634	1.290	1.353	0.698	1.329	1.350	-0.030	0.737	1.474	-0.077	0.436	1.525	-0.073	0.293	1.583	-0.071	0.276	1.541	0.120	0.736	1.467	0.165	0.435	1.526	0.142	0.285	1.582	0.129	0.273	1.544	0.041	1.241	1.450	-0.224	0.640	1.401	-0.210	0.701	1.380	0.804	1.340	1.345	0.715	1.309	1.314
1667	53.674	0.046	0.731	1.503	0.043	1.027	1.477	0.040	1.310	1.438	0.046	1.455	1.412	-0.108	1.203	1.432	-0.158	0.967	1.445	-0.214	0.776	1.414	-0.233	0.711	1.406	0.212	1.196	1.423	0.466	1.227	1.385	0.634	1.290	1.353	0.698	1.329	1.350	-0.030	0.737	1.474	-0.077	0.436	1.525	-0.073	0.293	1.583	-0.071	0.276	1.541	0.120	0.736	1.467	0.165	0.435	1.526	0.142	0.285	1.582	0.129	0.273	1.544	0.041	1.241	1.450	-0.224	0.640	1.401	-0.210	0.701	1.380	0.804	1.340	1.345	0.715	1.309	1.314
